<?xml version="1.0" encoding="UTF-8"?>
<!-- Generated by jsxcad -->
<!DOCTYPE svg PUBLIC "-//W3C//DTD SVG 1.1 Tiny//EN" "http://www.w3.org/Graphics/SVG/1.1/DTD/svg11-tiny.dtd">
<svg viewBox="-250 -250 500 500" width="500" height="500" xmlns="http://www.w3.org/2000/svg"><path d="M-31.29649802672737,-69.68549934661519L-2.387012277231886,-13.063321374615995L5.577551969146341,-10.835665746730113z" style="fill:rgb(57,36,182)"/><path d="M-23.08928606469082,-67.70519766683631L5.577551969146341,-10.835665746730113L13.52682417323814,-17.213231660242634z" style="fill:rgb(197,72,218)"/><path d="M3.598251716840845,-79.34273441237494L30.95335242024763,-21.75761220142799L39.19111742821215,-19.565492301436556z" style="fill:rgb(57,36,182)"/><path d="M12.105865116394803,-77.40837783532668L39.19111742821215,-19.565492301436556L47.13118946113338,-25.976365735565437z" style="fill:rgb(197,72,218)"/><path d="M5.577551969146341,-10.835665746730113L-30.480546839102246,-69.48862180081164L-31.29649802672737,-69.68549934661519zM-30.480546839102246,-69.48862180081164L5.577551969146341,-10.835665746730113L-23.08928606469082,-67.70519766683631z" style="fill:rgb(57,36,182)"/><path d="M-22.243040235381926,-68.36546168133525L13.52682417323814,-17.213231660242634L-14.64458503268673,-74.29397163845802zM13.52682417323814,-17.213231660242634L-22.243040235381926,-68.36546168133525L-23.08928606469082,-67.70519766683631z" style="fill:rgb(197,72,218)"/><path d="M39.19111742821215,-19.565492301436556L4.4440260742324655,-79.15043447731834L3.598251716840845,-79.34273441237494zM4.4440260742324655,-79.15043447731834L39.19111742821215,-19.565492301436556L12.105865116394803,-77.40837783532668z" style="fill:rgb(57,36,182)"/><path d="M12.951214405129187,-78.07212412200604L47.13118946113338,-25.976365735565437L20.541465519968735,-84.03182515939072z" style="fill:rgb(197,72,218)"/><path d="M-31.29649802672737,-69.68549934661519L-18.7335857139026,-79.96996965862112L-27.92847301982962,-77.40971774891155z" style="fill:rgb(83,212,212)"/><path d="M47.13118946113338,-25.976365735565437L12.951214405129187,-78.07212412200604L12.105865116394803,-77.40837783532668z" style="fill:rgb(197,72,218)"/><path d="M-31.29649802672737,-69.68549934661519L-17.70933424336515,-80.25516937359912L-18.7335857139026,-79.96996965862112zM-31.29649802672737,-69.68549934661519L-14.953242652557151,-74.89433357320858L-17.70933424336515,-80.25516937359912zM-31.29649802672737,-69.68549934661519L-14.64458503268673,-74.29397163845802L-14.953242652557151,-74.89433357320858zM-31.29649802672737,-69.68549934661519L-22.243040235381926,-68.36546168133525L-14.64458503268673,-74.29397163845802zM-31.29649802672737,-69.68549934661519L-23.08928606469082,-67.70519766683631L-22.243040235381926,-68.36546168133525z" style="fill:rgb(83,212,212)"/><path d="M3.598251716840845,-79.34273441237494L6.774651114408984,-87.07256962763466L6.458820844606379,-86.30399366207644z" style="fill:rgb(247,114,169)"/><path d="M3.598251716840845,-79.34273441237494L16.12921645846831,-89.6772831030891L6.774651114408984,-87.07256962763466zM3.598251716840845,-79.34273441237494L17.171278019821997,-89.96744195098029L16.12921645846831,-89.6772831030891zM3.598251716840845,-79.34273441237494L20.20202557567969,-84.62965257501409L17.171278019821997,-89.96744195098029zM3.598251716840845,-79.34273441237494L20.541465519968735,-84.03182515939072L20.20202557567969,-84.62965257501409zM3.598251716840845,-79.34273441237494L12.951214405129187,-78.07212412200604L20.541465519968735,-84.03182515939072zM3.598251716840845,-79.34273441237494L12.105865116394803,-77.40837783532668L12.951214405129187,-78.07212412200604z" style="fill:rgb(83,212,212)"/><path d="M-32.812844486166796,74.92702086333645L0.2841984387330238,131.1645525761343L-3.147573431310612,122.99426966819719z" style="fill:rgb(241,184,128)"/><path d="M-51.79530628632571,79.49852917893992L-17.74624251175629,135.22070734345527L-8.79286277200699,138.79449156618645z" style="fill:rgb(57,36,182)"/><path d="M-8.79286277200699,138.79449156618645L0.2841984387330238,131.1645525761343L-32.812844486166796,74.92702086333645z" style="fill:rgb(197,72,218)"/><path d="M-33.149991671609754,74.10389131999796L-3.147573431310612,122.99426966819719L-36.157030603026016,66.76236489792409zM40.080839492649964,57.37219175150946L69.42994916584176,115.60943133295741L65.34409855355828,107.43481465870669zM-3.147573431310612,122.99426966819719L-33.149991671609754,74.10389131999796L-32.812844486166796,74.92702086333645z" style="fill:rgb(241,184,128)"/><path d="M50.779509220686414,119.8050625162211L60.37484604749599,123.3301551375425L30.374577422894827,65.42096433039058zM-8.79286277200699,138.79449156618645L-50.87601954069816,79.83431226644541L-51.79530628632571,79.49852917893992z" style="fill:rgb(57,36,182)"/><path d="M60.37484604749599,123.3301551375425L69.42994916584176,115.60943133295741L40.080839492649964,57.37219175150946z" style="fill:rgb(197,72,218)"/><path d="M-50.87601954069816,79.83431226644541L-8.79286277200699,138.79449156618645L-42.540818677177256,82.8788760572094z" style="fill:rgb(57,36,182)"/><path d="M-32.812844486166796,74.92702086333645L-42.540818677177256,82.8788760572094L-8.79286277200699,138.79449156618645z" style="fill:rgb(197,72,218)"/><path d="M-51.79530628632571,79.49852917893992L-47.79496596616613,69.59113488521824L-48.19241518428986,70.57547261901682z" style="fill:rgb(246,81,127)"/><path d="M-51.79530628632571,79.49852917893992L-37.32387095274742,67.04598169445323L-47.79496596616613,69.59113488521824z" style="fill:rgb(83,212,212)"/><path d="M39.67027738501963,56.55033372809166L65.34409855355828,107.43481465870669L36.00906867092018,49.22133740662024z" style="fill:rgb(241,184,128)"/><path d="M-51.79530628632571,79.49852917893992L-36.157030603026016,66.76236489792409L-37.32387095274742,67.04598169445323z" style="fill:rgb(83,212,212)"/><path d="M65.34409855355828,107.43481465870669L39.67027738501963,56.55033372809166L40.080839492649964,57.37219175150946z" style="fill:rgb(241,184,128)"/><path d="M-51.79530628632571,79.49852917893992L-33.149991671609754,74.10389131999796L-36.157030603026016,66.76236489792409z" style="fill:rgb(83,212,212)"/><path d="M30.374577422894827,65.42096433039058L20.404311387995214,62.11084479048577L50.779509220686414,119.8050625162211z" style="fill:rgb(57,36,182)"/><path d="M-51.79530628632571,79.49852917893992L-32.812844486166796,74.92702086333645L-33.149991671609754,74.10389131999796zM-51.79530628632571,79.49852917893992L-42.540818677177256,82.8788760572094L-32.812844486166796,74.92702086333645z" style="fill:rgb(83,212,212)"/><path d="M40.080839492649964,57.37219175150946L30.374577422894827,65.42096433039058L60.37484604749599,123.3301551375425z" style="fill:rgb(197,72,218)"/><path d="M40.080839492649964,57.37219175150946L36.00906867092018,49.22133740662024L23.949144688364782,52.15267789696077zM23.949144688364782,52.15267789696077L20.404311387995214,62.11084479048577L30.374577422894827,65.42096433039058zM30.374577422894827,65.42096433039058L40.080839492649964,57.37219175150946L23.949144688364782,52.15267789696077z" style="fill:rgb(83,212,212)"/></svg>
