<?xml version="1.0" encoding="UTF-8"?>
<!-- Generated by jsxcad -->
<!DOCTYPE svg PUBLIC "-//W3C//DTD SVG 1.1 Tiny//EN" "http://www.w3.org/Graphics/SVG/1.1/DTD/svg11-tiny.dtd">
<svg viewBox="-250 -250 500 500" width="500" height="500" xmlns="http://www.w3.org/2000/svg"><path d="M-31.14816000176115,-74.28985429166143L-2.376272296896991,-17.688878013017035L5.552302784000194,-15.499678635494936z" style="fill:rgb(57,36,182)"/><path d="M-22.97914093212751,-72.34875998755669L5.552302784000194,-15.499678635494936L13.465724085501414,-21.838164167973357z" style="fill:rgb(197,72,218)"/><path d="M3.581049342102271,-83.94073959388957L30.8129400521957,-26.3816893275342L39.012236982382184,-24.22817177817269z" style="fill:rgb(57,36,182)"/><path d="M12.047612554441887,-82.0456692288555L39.012236982382184,-24.22817177817269L46.91654584804826,-30.599495179196527z" style="fill:rgb(197,72,218)"/><path d="M5.552302784000194,-15.499678635494936L-30.335983390918116,-74.09686490468435L-31.14816000176115,-74.28985429166143zM-30.335983390918116,-74.09686490468435L5.552302784000194,-15.499678635494936L-22.97914093212751,-72.34875998755669z" style="fill:rgb(57,36,182)"/><path d="M-22.136956714358927,-73.00479493677958L13.465724085501414,-21.838164167973357L-14.574886717051626,-78.89539808137259zM13.465724085501414,-21.838164167973357L-22.136956714358927,-73.00479493677958L-22.97914093212751,-72.34875998755669z" style="fill:rgb(197,72,218)"/><path d="M39.012236982382184,-24.22817177817269L4.4227664848848685,-83.75233993277752L3.581049342102271,-83.94073959388957zM4.4227664848848685,-83.75233993277752L39.012236982382184,-24.22817177817269L12.047612554441887,-82.0456692288555z" style="fill:rgb(57,36,182)"/><path d="M12.888908704133442,-82.70514336911859L46.91654584804826,-30.599495179196527L20.44285295468919,-88.6264629881602z" style="fill:rgb(197,72,218)"/><path d="M-31.14816000176115,-74.28985429166143L-18.645146176811313,-84.50745064452292L-27.796924956987265,-81.94894860327396z" style="fill:rgb(83,212,212)"/><path d="M46.91654584804826,-30.599495179196527L12.888908704133442,-82.70514336911859L12.047612554441887,-82.0456692288555z" style="fill:rgb(197,72,218)"/><path d="M-31.14816000176115,-74.28985429166143L-17.625709018278965,-84.79245239812172L-18.645146176811313,-84.50745064452292zM-31.14816000176115,-74.28985429166143L-14.882131392960574,-79.48928492534363L-17.625709018278965,-84.79245239812172z" style="fill:rgb(83,212,212)"/><path d="M-31.14816000176115,-74.28985429166143L-30.335983390918116,-74.09686490468435L-22.97914093212751,-72.34875998755669z" style="fill:rgb(62,176,225)"/><path d="M-31.14816000176115,-74.28985429166143L-14.574886717051626,-78.89539808137259L-14.882131392960574,-79.48928492534363zM-31.14816000176115,-74.28985429166143L-22.136956714358927,-73.00479493677958L-14.574886717051626,-78.89539808137259zM-31.14816000176115,-74.28985429166143L-22.97914093212751,-72.34875998755669L-22.136956714358927,-73.00479493677958z" style="fill:rgb(83,212,212)"/><path d="M3.581049342102271,-83.94073959388957L6.742467051290722,-91.60490877516273L6.428117828568661,-90.84284088349122z" style="fill:rgb(127,207,227)"/><path d="M3.581049342102271,-83.94073959388957L16.052415968483906,-94.20763864536465L6.742467051290722,-91.60490877516273zM3.581049342102271,-83.94073959388957L17.089494875632877,-94.49756351166762L16.052415968483906,-94.20763864536465zM3.581049342102271,-83.94073959388957L20.105119600800816,-89.21777218130991L17.089494875632877,-94.49756351166762zM3.581049342102271,-83.94073959388957L20.44285295468919,-88.6264629881602L20.105119600800816,-89.21777218130991zM3.581049342102271,-83.94073959388957L12.888908704133442,-82.70514336911859L20.44285295468919,-88.6264629881602zM3.581049342102271,-83.94073959388957L12.047612554441887,-82.0456692288555L12.888908704133442,-82.70514336911859z" style="fill:rgb(83,212,212)"/><path d="M-32.99362786002128,81.07590314773921L0.28567266833141947,137.245552494552L-3.1637618266172427,128.98144600481396z" style="fill:rgb(241,184,128)"/><path d="M-52.07931759842663,85.64323915537057L-17.837885763025177,141.295419781073L-8.838589877272693,144.93059344588468z" style="fill:rgb(57,36,182)"/><path d="M-42.775830086165094,89.08824841659087L-8.838589877272693,144.93059344588468L0.28567266833141947,137.245552494552z" style="fill:rgb(197,72,218)"/><path d="M-33.3324662131995,80.24263693082445L-3.1637618266172427,128.98144600481396L-36.35443758322088,72.81106570800276zM40.30569951345179,63.53488762603803L69.79629125742103,121.7128079289825L65.68589480184447,113.44255348817119z" style="fill:rgb(241,184,128)"/><path d="M20.51822864112595,68.27015799963296L51.04622315256958,125.90267477226972L60.69423140592748,129.49012076972664z" style="fill:rgb(57,36,182)"/><path d="M-3.1637618266172427,128.98144600481396L-33.3324662131995,80.24263693082445L-32.99362786002128,81.07590314773921z" style="fill:rgb(241,184,128)"/><path d="M-8.838589877272693,144.93059344588468L-51.15519725473388,85.9854330403881L-52.07931759842663,85.64323915537057z" style="fill:rgb(57,36,182)"/><path d="M30.545451250414928,71.64584124558036L60.69423140592748,129.49012076972664L69.79629125742103,121.7128079289825z" style="fill:rgb(197,72,218)"/><path d="M-51.15519725473388,85.9854330403881L-8.838589877272693,144.93059344588468L-42.775830086165094,89.08824841659087z" style="fill:rgb(57,36,182)"/><path d="M-41.7952394060674,88.28507540142125L0.28567266833141947,137.245552494552L-32.99362786002128,81.07590314773921zM0.28567266833141947,137.245552494552L-41.7952394060674,88.28507540142125L-42.775830086165094,89.08824841659087z" style="fill:rgb(197,72,218)"/><path d="M-52.07931759842663,85.64323915537057L-48.05515133791838,75.6375861099189L-48.45495356426167,76.63165097155851z" style="fill:rgb(246,81,127)"/><path d="M-52.07931759842663,85.64323915537057L-37.52758874704155,73.09446063936434L-48.05515133791838,75.6375861099189z" style="fill:rgb(83,212,212)"/><path d="M39.89262706978467,62.70270126348411L65.68589480184447,113.44255348817119L36.20922547329346,55.28198811025643z" style="fill:rgb(241,184,128)"/><path d="M-52.07931759842663,85.64323915537057L-36.35443758322088,72.81106570800276L-37.52758874704155,73.09446063936434z" style="fill:rgb(83,212,212)"/><path d="M65.68589480184447,113.44255348817119L39.89262706978467,62.70270126348411L40.30569951345179,63.53488762603803z" style="fill:rgb(241,184,128)"/><path d="M-52.07931759842663,85.64323915537057L-33.3324662131995,80.24263693082445L-36.35443758322088,72.81106570800276z" style="fill:rgb(83,212,212)"/><path d="M60.69423140592748,129.49012076972664L21.514118213498282,68.6054292432745L20.51822864112595,68.27015799963296z" style="fill:rgb(57,36,182)"/><path d="M-52.07931759842663,85.64323915537057L-32.99362786002128,81.07590314773921L-33.3324662131995,80.24263693082445z" style="fill:rgb(83,212,212)"/><path d="M21.514118213498282,68.6054292432745L60.69423140592748,129.49012076972664L30.545451250414928,71.64584124558036z" style="fill:rgb(57,36,182)"/><path d="M31.52388434341868,70.83274681299147L69.79629125742103,121.7128079289825L40.30569951345179,63.53488762603803z" style="fill:rgb(197,72,218)"/><path d="M-52.07931759842663,85.64323915537057L-41.7952394060674,88.28507540142125L-32.99362786002128,81.07590314773921z" style="fill:rgb(83,212,212)"/><path d="M69.79629125742103,121.7128079289825L31.52388434341868,70.83274681299147L30.545451250414928,71.64584124558036z" style="fill:rgb(197,72,218)"/><path d="M-52.07931759842663,85.64323915537057L-42.775830086165094,89.08824841659087L-41.7952394060674,88.28507540142125zM20.51822864112595,68.27015799963296L36.20922547329346,55.28198811025643L24.08187084386929,58.21157139333626zM20.51822864112595,68.27015799963296L39.89262706978467,62.70270126348411L36.20922547329346,55.28198811025643z" style="fill:rgb(83,212,212)"/><path d="M20.51822864112595,68.27015799963296L21.514118213498282,68.6054292432745L30.545451250414928,71.64584124558036z" style="fill:rgb(50,53,197)"/><path d="M20.51822864112595,68.27015799963296L40.30569951345179,63.53488762603803L39.89262706978467,62.70270126348411zM20.51822864112595,68.27015799963296L31.52388434341868,70.83274681299147L40.30569951345179,63.53488762603803zM20.51822864112595,68.27015799963296L30.545451250414928,71.64584124558036L31.52388434341868,70.83274681299147z" style="fill:rgb(83,212,212)"/></svg>
