<?xml version="1.0" encoding="UTF-8"?>
<!-- Generated by jsxcad -->
<!DOCTYPE svg PUBLIC "-//W3C//DTD SVG 1.1 Tiny//EN" "http://www.w3.org/Graphics/SVG/1.1/DTD/svg11-tiny.dtd">
<svg viewBox="-250 -250 500 500" width="500" height="500" xmlns="http://www.w3.org/2000/svg"><path d="M-2.376272296896991,-17.688878013017035L5.552302784000194,-15.499678635494936L-22.97914093212751,-72.34875998755669z" style="fill:rgb(57,36,182)"/><path d="M-22.97914093212751,-72.34875998755669L5.552302784000194,-15.499678635494936L13.465724085501414,-21.838164167973357z" style="fill:rgb(197,72,218)"/><path d="M30.8129400521957,-26.3816893275342L39.012236982382184,-24.22817177817269L12.047612554441887,-82.0456692288555z" style="fill:rgb(57,36,182)"/><path d="M-17.62575521233651,-84.79244247531702L10.360878178760204,-27.860854908553513L-17.62571321459288,-84.79246015842081z" style="fill:rgb(160,49,222)"/><path d="M12.047612554441887,-82.0456692288555L39.012236982382184,-24.22817177817269L46.91654584804826,-30.599495179196527z" style="fill:rgb(197,72,218)"/><path d="M-22.97914093212751,-72.34875998755669L-31.14816000176115,-74.28985429166143L-2.376272296896991,-17.688878013017035z" style="fill:rgb(57,36,182)"/><path d="M-14.574900636641466,-78.89542177290217L-22.136956714358927,-73.00479493677958L13.465724085501414,-21.838164167973357z" style="fill:rgb(197,72,218)"/><path d="M17.089447837622014,-94.49755337869973L43.53586926243413,-36.60584203796772L17.0894901971846,-94.49757121415543z" style="fill:rgb(160,49,222)"/><path d="M13.465724085501414,-21.838164167973357L-22.136956714358927,-73.00479493677958L-22.97914093212751,-72.34875998755669z" style="fill:rgb(197,72,218)"/><path d="M12.047612554441887,-82.0456692288555L3.581049342102271,-83.94073959388957L30.8129400521957,-26.3816893275342z" style="fill:rgb(57,36,182)"/><path d="M20.442838677458056,-88.62649549607727L12.888908704133442,-82.70514336911859L46.91654584804826,-30.599495179196527z" style="fill:rgb(197,72,218)"/><path d="M-17.62575521233651,-84.79244247531702L-27.796924956987265,-81.94894860327396L-31.14816000176115,-74.28985429166143z" style="fill:rgb(83,212,212)"/><path d="M46.91654584804826,-30.599495179196527L12.888908704133442,-82.70514336911859L12.047612554441887,-82.0456692288555z" style="fill:rgb(197,72,218)"/><path d="M-17.62575521233651,-84.79244247531702L-14.881992802238752,-79.48897310627098L-17.62571321459288,-84.79246015842081z" style="fill:rgb(90,215,212)"/><path d="M-17.62575521233651,-84.79244247531702L-31.14816000176115,-74.28985429166143L-14.574900636641466,-78.89542177290217z" style="fill:rgb(83,212,212)"/><path d="M-17.62571321459288,-84.79246015842081L-14.881992802238752,-79.48897310627098L-14.574900636641466,-78.89542177290217z" style="fill:rgb(12,72,127)"/><path d="M-31.14816000176115,-74.28985429166143L-22.136956714358927,-73.00479493677958L-14.574900636641466,-78.89542177290217zM-31.14816000176115,-74.28985429166143L-22.97914093212751,-72.34875998755669L-22.136956714358927,-73.00479493677958zM20.442843965987684,-88.62645399951761L17.089447837622014,-94.49755337869973L6.742467051290722,-91.60490877516273z" style="fill:rgb(83,212,212)"/><path d="M20.442843965987684,-88.62645399951761L17.0894901971846,-94.49757121415543L17.089447837622014,-94.49755337869973z" style="fill:rgb(90,215,212)"/><path d="M6.742467051290722,-91.60490877516273L3.581049342102271,-83.94073959388957L12.047612554441887,-82.0456692288555zM12.047612554441887,-82.0456692288555L20.442838677458056,-88.62649549607727L6.742467051290722,-91.60490877516273z" style="fill:rgb(83,212,212)"/><path d="M20.442843965987684,-88.62645399951761L20.442838677458056,-88.62649549607727L17.0894901971846,-94.49757121415543z" style="fill:rgb(54,193,208)"/><path d="M12.047612554441887,-82.0456692288555L20.442843965987684,-88.62645399951761L20.442838677458056,-88.62649549607727z" style="fill:rgb(90,207,219)"/><path d="M-32.99344747867051,81.0761968202513L0.28567266833141947,137.245552494552L-3.1637618266172427,128.98144600481396z" style="fill:rgb(241,184,128)"/><path d="M-17.837885763025177,141.295419781073L-8.838589877272693,144.93059344588468L-42.775830086165094,89.08824841659087z" style="fill:rgb(57,36,182)"/><path d="M-42.775830086165094,89.08824841659087L-8.838589877272693,144.93059344588468L0.28567266833141947,137.245552494552z" style="fill:rgb(197,72,218)"/><path d="M-36.35448816150187,72.81107486014194L-3.1637618266172427,128.98144600481396L-36.354439603525556,72.81105441456543z" style="fill:rgb(160,49,222)"/><path d="M-3.1637618266172427,128.98144600481396L-36.354439603525556,72.81105441456543L-33.332298748787004,80.2429358105442zM40.30567909766701,63.53484766108124L69.79629125742103,121.7128079289825L65.68589480184447,113.44255348817119zM-32.99344747867051,81.0761968202513L-3.1637618266172427,128.98144600481396L-33.332298748787004,80.2429358105442z" style="fill:rgb(241,184,128)"/><path d="M51.04622315256958,125.90267477226972L60.69423140592748,129.49012076972664L30.545451250414928,71.64584124558036zM-42.775830086165094,89.08824841659087L-52.07931759842663,85.64323915537057L-17.837885763025177,141.295419781073z" style="fill:rgb(57,36,182)"/><path d="M30.545451250414928,71.64584124558036L60.69423140592748,129.49012076972664L69.79629125742103,121.7128079289825z" style="fill:rgb(197,72,218)"/><path d="M-32.99364202651092,81.0758689908569L0.28567266833141947,137.245552494552L-32.99344747867051,81.0761968202513z" style="fill:rgb(240,187,125)"/><path d="M-32.99364202651092,81.0758689908569L-41.7952394060674,88.28507540142125L0.28567266833141947,137.245552494552zM0.28567266833141947,137.245552494552L-41.7952394060674,88.28507540142125L-42.775830086165094,89.08824841659087z" style="fill:rgb(197,72,218)"/><path d="M36.2091701091382,55.28200261891654L65.68589480184447,113.44255348817119L36.209219545610196,55.28197659953514z" style="fill:rgb(166,52,222)"/><path d="M-36.35448816150187,72.81107486014194L-48.05515133791838,75.6375861099189L-52.07931759842663,85.64323915537057z" style="fill:rgb(83,212,212)"/><path d="M65.68589480184447,113.44255348817119L36.209219545610196,55.28197659953514L40.30567909766701,63.53484766108124z" style="fill:rgb(241,184,128)"/><path d="M-36.35448816150187,72.81107486014194L-33.332298748787004,80.2429358105442L-36.354439603525556,72.81105441456543z" style="fill:rgb(90,215,212)"/><path d="M-36.35448816150187,72.81107486014194L-52.07931759842663,85.64323915537057L-32.99364202651092,81.0758689908569z" style="fill:rgb(83,212,212)"/><path d="M30.545451250414928,71.64584124558036L20.51822864112595,68.27015799963296L51.04622315256958,125.90267477226972z" style="fill:rgb(57,36,182)"/><path d="M-36.35448816150187,72.81107486014194L-32.99364202651092,81.0758689908569L-33.332298748787004,80.2429358105442z" style="fill:rgb(242,183,127)"/><path d="M-36.354439603525556,72.81105441456543L-32.99364202651092,81.0758689908569L-32.99344747867051,81.0761968202513z" style="fill:rgb(241,184,128)"/><path d="M40.30567909766701,63.53484766108124L31.52388434341868,70.83274681299147L69.79629125742103,121.7128079289825z" style="fill:rgb(197,72,218)"/><path d="M-52.07931759842663,85.64323915537057L-41.7952394060674,88.28507540142125L-32.99364202651092,81.0758689908569z" style="fill:rgb(83,212,212)"/><path d="M69.79629125742103,121.7128079289825L31.52388434341868,70.83274681299147L30.545451250414928,71.64584124558036z" style="fill:rgb(197,72,218)"/><path d="M-52.07931759842663,85.64323915537057L-42.775830086165094,89.08824841659087L-41.7952394060674,88.28507540142125zM40.30568900906281,63.5348928782747L36.2091701091382,55.28200261891654L24.08187084386929,58.21157139333626z" style="fill:rgb(83,212,212)"/><path d="M40.30568900906281,63.5348928782747L36.209219545610196,55.28197659953514L36.2091701091382,55.28200261891654z" style="fill:rgb(83,211,212)"/><path d="M24.08187084386929,58.21157139333626L20.51822864112595,68.27015799963296L30.545451250414928,71.64584124558036zM30.545451250414928,71.64584124558036L40.30567909766701,63.53484766108124L24.08187084386929,58.21157139333626z" style="fill:rgb(83,212,212)"/><path d="M40.30568900906281,63.5348928782747L40.30567909766701,63.53484766108124L36.209219545610196,55.28197659953514z" style="fill:rgb(127,227,207)"/><path d="M30.545451250414928,71.64584124558036L40.30568900906281,63.5348928782747L40.30567909766701,63.53484766108124z" style="fill:rgb(78,215,205)"/><path d="M30.545451250414928,71.64584124558036L31.52388434341868,70.83274681299147L40.30568900906281,63.5348928782747z" style="fill:rgb(210,37,163)"/></svg>
